<?xml version="1.0" encoding="UTF-8"?>
<svg width="60px" height="60px" viewBox="0 0 60 60" version="1.1" xmlns="http://www.w3.org/2000/svg" xmlns:xlink="http://www.w3.org/1999/xlink">
    <!-- Generator: Sketch 50.2 (55047) - http://www.bohemiancoding.com/sketch -->
    <title>codepen</title>
    <desc>Created with Sketch.</desc>
    <defs></defs>
    <g id="codepen" stroke="none" stroke-width="1" fill="none" fill-rule="evenodd">
        <path d="M49.985,23.6827077 C49.9808333,23.6560411 49.975,23.6327077 49.9716667,23.6077077 C49.9634541,23.5592336 49.9531668,23.5111339 49.9408333,23.4635411 C49.9333333,23.4352077 49.9225,23.4077077 49.9133333,23.3802077 C49.9001995,23.3380982 49.885748,23.296411 49.87,23.2552077 C49.8584493,23.2267473 49.8453748,23.1989292 49.8308333,23.1718744 C49.8141666,23.1324623 49.7946713,23.0943072 49.7725,23.0577077 C49.7575,23.0302077 49.74,23.0035411 49.7241667,22.9777077 C49.6612699,22.8796083 49.588381,22.7882876 49.5066667,22.7052077 C49.4833333,22.6827077 49.4625,22.6585411 49.4383333,22.6385411 C49.4067283,22.610326 49.3744981,22.5828192 49.3416667,22.5560411 C49.315,22.5360411 49.29,22.5160411 49.2633333,22.4977077 L49.235,22.4760411 L30.9533333,10.2885411 C30.3759987,9.90381964 29.6240013,9.90381964 29.0466667,10.2885411 L10.7658333,22.4760411 L10.7375,22.4977077 C10.6757971,22.5406086 10.6173083,22.5879567 10.5625,22.6393744 C10.5383333,22.6585411 10.5158333,22.6827077 10.4933333,22.7052077 C10.4641667,22.7352077 10.435,22.7660411 10.4091667,22.7985411 C10.3593656,22.8536846 10.3152534,22.9137106 10.2775,22.9777077 C10.26,23.0035411 10.2441667,23.0302077 10.2275,23.0577077 C10.2063286,23.0945714 10.1868636,23.1323891 10.1691667,23.1710411 C10.1566667,23.1977077 10.1425,23.2260411 10.1316667,23.2552077 C10.1133333,23.2968744 10.1,23.3377077 10.0866667,23.3802077 C10.0775,23.4077077 10.0675,23.4352077 10.06,23.4635411 C10.0475,23.5102077 10.0391667,23.5585411 10.03,23.6077077 C10.025,23.6327077 10.0191667,23.6560411 10.0166667,23.6827077 C10.0066667,23.7552077 10,23.8302077 10,23.9060411 L10,36.0935411 C10,36.1685411 10.0066667,36.2435411 10.0166667,36.3185411 C10.0191667,36.3427077 10.025,36.3677077 10.03,36.3927077 C10.0383333,36.4418744 10.0475,36.4885411 10.06,36.5368744 C10.0675,36.5652077 10.0775,36.5927077 10.0866667,36.6202077 C10.1,36.6618744 10.1133333,36.7035411 10.1308333,36.7460411 C10.1425,36.7743744 10.1558333,36.8010411 10.1683333,36.8293744 C10.1875,36.8677077 10.2058333,36.9052077 10.2275,36.9443744 C10.2441667,36.9702077 10.26,36.9968744 10.2775,37.0227077 C10.3390998,37.1212481 10.4117969,37.2123991 10.4941667,37.2943744 C10.5166667,37.3177077 10.5383333,37.3402077 10.5625,37.3610411 C10.6173083,37.4124588 10.6757971,37.4598069 10.7375,37.5027077 L10.7658333,37.5243744 L29.0466667,49.7118744 C29.6238654,50.0970446 30.3761346,50.0970446 30.9533333,49.7118744 L49.235,37.5243744 L49.2633333,37.5027077 C49.29,37.4843744 49.315,37.4643744 49.3416667,37.4443744 C49.3745069,37.4173217 49.4067372,37.3895369 49.4383333,37.3610411 C49.4625,37.3402077 49.4833333,37.3177077 49.5066667,37.2943744 C49.5891025,37.2124583 49.661806,37.1212993 49.7233333,37.0227077 C49.74,36.9968744 49.7575,36.9702077 49.7725,36.9443744 C49.795,36.9052077 49.8141667,36.8677077 49.8308333,36.8293744 C49.845,36.8010411 49.8591667,36.7743744 49.87,36.7460411 C49.8866667,36.7043744 49.9,36.6618744 49.9133333,36.6202077 C49.9225,36.5927077 49.9333333,36.5652077 49.9416667,36.5368744 C49.9533333,36.4885411 49.9625,36.4418744 49.9716667,36.3927077 C49.975,36.3677077 49.9808333,36.3427077 49.985,36.3193744 C49.995,36.2443744 50,36.1693744 50,36.0943744 L50,23.9068744 C50,23.8302077 49.995,23.7552077 49.985,23.6827077 Z M31.7183333,14.9310411 L45.1858333,23.9085411 L39.1716667,27.9327077 L31.7191667,22.9477077 L31.7191667,14.9310411 L31.7183333,14.9310411 Z M28.2808333,14.9310411 L28.2808333,22.9477077 L20.83,27.9327077 L14.8133333,23.9085411 L28.2816667,14.9310411 L28.2808333,14.9310411 Z M13.4375,27.1235411 L17.7391667,30.0002077 L13.4375,32.8768744 L13.4375,27.1235411 Z M28.2816667,45.0693744 L14.8141667,36.0918744 L20.83,32.0685411 L28.2816667,37.0527077 L28.2816667,45.0693744 Z M30,34.0668744 L23.9216667,30.0002077 L30,25.9335411 L36.08,30.0002077 L30,34.0668744 Z M31.7191667,45.0693744 L31.7191667,37.0527077 L39.1708333,32.0693744 L45.1858333,36.0918744 L31.7191667,45.0693744 Z M46.5625,32.8768744 L42.2625,30.0002077 L46.5625,27.1235411 L46.5625,32.8768744 Z" id="social" fill="#F3F0EE" fill-rule="nonzero"></path>
    </g>
</svg>