<?xml version="1.0" encoding="UTF-8"?>
<svg width="60px" height="60px" viewBox="0 0 60 60" version="1.1" xmlns="http://www.w3.org/2000/svg" xmlns:xlink="http://www.w3.org/1999/xlink">
    <!-- Generator: Sketch 50.2 (55047) - http://www.bohemiancoding.com/sketch -->
    <title>dribbble</title>
    <desc>Created with Sketch.</desc>
    <defs></defs>
    <g id="dribbble" stroke="none" stroke-width="1" fill="none" fill-rule="evenodd">
        <path d="M30,10 C18.954,10 10,18.9545 10,30 C10,41.045 18.954,50 30,50 C41.045,50 50,41.045 50,30 C50,18.9545 41.045,10 30,10 Z M43.5205,20.28 C45.496257,23.0190811 46.588304,26.296269 46.6505,29.673 C42.8900478,28.9685253 39.0277584,29.0104882 35.2835,29.7965 C34.7855,28.493 34.2545,27.2 33.661,25.9275 C37.1645,24.4155 40.449,22.495 43.5205,20.28 Z M41.302,17.777 C38.4165,19.834 35.3675,21.592 32.1645,22.959 C30.4525,19.77 28.407,16.7145 26.067,13.82 C27.331,13.5135 28.6425,13.3335 30,13.3335 C34.3665,13.3335 38.33,15.027 41.302,17.777 Z M22.712,15.0295 C25.129,17.8845 27.262,20.9275 29.0335,24.1555 C24.1165,25.8645 18.933,26.7665 13.642,26.8385 C14.6435,21.6255 18.075,17.29 22.712,15.0295 Z M13.3425,30.176 C19.346,30.1305 25.1475,29.074 30.563,27.1365 C31.11,28.2985 31.603,29.484 32.069,30.6805 C26.38,32.5635 21.327,36.201 17.671,41.1865 C15.0215,38.268 13.386,34.4175 13.3425,30.176 Z M20.1355,43.4115 C22.9295,39.479 26.7505,36.38 31.318,34.4885 C31.933,34.2345 32.557,34.0265 33.182,33.8215 C34.4055,37.6495 35.174,41.634 35.5435,45.7015 C33.807,46.315 31.947,46.6665 30,46.6665 C26.3035,46.6665 22.8995,45.449 20.1355,43.4115 Z M38.7515,44.165 C38.3205,40.381 37.5525,36.6295 36.39,32.97 C39.6955,32.3325 43.0725,32.3925 46.3735,33.06 C45.5015,37.7505 42.666,41.7395 38.7515,44.165 Z" id="Shape" fill="#F3F0EE" fill-rule="nonzero"></path>
    </g>
</svg>