<?xml version="1.0" encoding="UTF-8"?>
<svg width="60px" height="60px" viewBox="0 0 60 60" version="1.1" xmlns="http://www.w3.org/2000/svg" xmlns:xlink="http://www.w3.org/1999/xlink">
    <!-- Generator: Sketch 50.2 (55047) - http://www.bohemiancoding.com/sketch -->
    <title>github</title>
    <desc>Created with Sketch.</desc>
    <defs></defs>
    <g id="github" stroke="none" stroke-width="1" fill="none" fill-rule="evenodd">
        <path d="M10,33 C10,24.25 13.75,15.5 16.25,13 L22.5,19.25 C25,18.625 27.5,18 30,18 C32.5,18 35,18.625 37.5,19.25 L43.75,13 C46.25,15.5 50,24.25 50,33 C50,41.75 42.5,48 30,48 C17.5,48 10,41.75 10,33 Z M12.5,35.5 C12.5,40.5 20,45.5 30,45.5 C40,45.5 47.5,40.5 47.5,35.5 C47.5,30.5 40,28 30,28 C20,28 12.5,30.5 12.5,35.5 Z M17.5,36.75 C17.5,38.8210678 19.1789322,40.5 21.25,40.5 C23.3210678,40.5 25,38.8210678 25,36.75 C25,34.6789322 23.3210678,33 21.25,33 C19.1789322,33 17.5,34.6789322 17.5,36.75 Z M42.5,36.75 C42.5,34.6789322 40.8210678,33 38.75,33 C36.6789322,33 35,34.6789322 35,36.75 C35,38.8210678 36.6789322,40.5 38.75,40.5 C40.8210678,40.5 42.5,38.8210678 42.5,36.75 Z" id="Shape" fill="#F3F0EE" fill-rule="nonzero"></path>
    </g>
</svg>