<?xml version="1.0" encoding="UTF-8"?>
<svg width="24px" height="24px" viewBox="0 0 24 24" version="1.1" xmlns="http://www.w3.org/2000/svg" xmlns:xlink="http://www.w3.org/1999/xlink">
    <!-- Generator: Sketch 50.2 (55047) - http://www.bohemiancoding.com/sketch -->
    <title>github</title>
    <desc>Created with Sketch.</desc>
    <defs></defs>
    <g id="github" stroke="none" stroke-width="1" fill="none" fill-rule="evenodd">
        <path d="M8.99402238,16.2924894 C9.00116721,16.2122457 8.95955492,16.1144301 8.87979998,16.0390794 C8.81740834,15.9781841 8.74250654,15.9435015 8.67517034,15.93785 C8.68230431,15.9107506 8.68339396,15.8806682 8.67847906,15.8492864 C9.26539918,16.4182878 10.0203162,16.1809292 10.3471125,16.03455 C10.407525,15.600225 10.5816563,15.3037687 10.77375,15.1358625 C9.28125,14.9661187 7.71204375,14.3898937 7.71204375,11.8148812 C7.71204375,11.0812687 7.97461875,10.481775 8.4045375,10.0112062 C8.33476875,9.84181875 8.1046125,9.15838125 8.46973125,8.23269375 C8.46973125,8.23269375 9.03388125,8.05224375 10.3179938,8.921625 C10.8541313,8.77276875 11.4290813,8.69805 12,8.6955 C12.5711063,8.69805 13.1464313,8.77276875 13.6834688,8.921625 C14.9661188,8.05224375 15.529725,8.23269375 15.529725,8.23269375 C15.8953875,9.15838125 15.6654,9.84181875 15.59565,10.0112062 C16.0264875,10.481775 16.287225,11.0812687 16.287225,11.8148812 C16.287225,14.3961187 14.7150938,14.9641125 13.21875,15.1307437 C13.459725,15.3391125 13.6745063,15.7481625 13.6745063,16.375125 C13.6745063,17.2741687 13.6668,17.9978062 13.6668,18.2191687 C13.6668,18.3980625 13.78785,18.6075375 14.128425,18.5416312 C16.797,17.6520937 18.72015,15.134025 18.72015,12.1659 C18.72015,8.45443125 15.7113563,5.44591875 12,5.44591875 C8.2891875,5.44591875 5.2800375,8.45443125 5.2800375,12.1659 C5.2800375,15.1349437 7.20556875,17.6539312 9.87560625,18.54255 C10.2114188,18.6046125 10.3348313,18.3966 10.3348313,18.2191687 C10.3348313,18.0589687 10.3286063,17.5296 10.3256813,16.9680187 C8.456175,17.3745187 8.06158125,16.175175 8.06158125,16.175175 C7.755975,15.3984375 7.315425,15.1918875 7.315425,15.1918875 C6.70569375,14.774775 7.36156875,14.7833812 7.36156875,14.7833812 C7.61316501,14.8010742 7.82036282,14.9019301 7.98128172,15.0214525 C7.97622006,15.018895 7.97106329,15.0164339 7.9658155,15.0140757 C7.8359655,14.9525257 7.6958155,14.9779257 7.6572155,15.0697257 C7.6152155,15.1590757 7.6880155,15.2806757 7.8178655,15.3392757 C7.8520373,15.3554468 7.88707929,15.3654161 7.9208427,15.3696407 C7.91931889,15.4418297 7.95353967,15.526008 8.02108224,15.5959988 C8.06866408,15.6472428 8.12622086,15.6825792 8.18266189,15.6997327 C8.17573849,15.7645758 8.19960035,15.841704 8.2538675,15.9109813 C8.32047429,15.9954825 8.41527431,16.0482777 8.49956182,16.0544951 C8.48028426,16.1391943 8.52020704,16.2508576 8.60981114,16.3349735 C8.72132835,16.4449143 8.87239835,16.4687887 8.9475725,16.3931074 C8.92910411,16.5168859 9.01504756,16.6559006 9.14428481,16.7091856 C9.2784173,16.762547 9.41122927,16.705646 9.43995072,16.5801056 C9.46764877,16.451877 9.38029593,16.3057716 9.24649357,16.2510661 C9.14818433,16.209364 9.05057444,16.2295205 8.99402238,16.2924894 Z M8.455123,15.5781153 C8.44347447,15.573224 8.43177392,15.5690779 8.42010935,15.5657109 C8.42125871,15.5516686 8.4209569,15.5370922 8.41923377,15.5221813 C8.43106443,15.5413115 8.44302984,15.5599526 8.455123,15.5781153 Z M8.23347583,15.2576506 C8.20211265,15.2389506 8.16983008,15.2257296 8.13836008,15.2183961 C8.13616628,15.1852089 8.12228695,15.1508398 8.09906974,15.1188775 C8.15058293,15.1660618 8.19541877,15.2134791 8.23347583,15.2576506 Z M0,0 L24,0 L24,24 L0,24 L0,0 Z M9.98735862,16.5623967 C9.98735862,16.425499 9.87386719,16.314588 9.73567126,16.3182336 C9.59646896,16.3218792 9.487425,16.4350804 9.487425,16.5742684 C9.48869107,16.7102781 9.60156569,16.8225913 9.74041089,16.8180109 C9.87896392,16.8153 9.99054001,16.7006967 9.98735862,16.5623967 Z M10.4995717,16.4402413 C10.4820669,16.3059303 10.3582291,16.2266731 10.2200811,16.2598154 C10.0848016,16.2952038 9.98642245,16.4308441 10.0033079,16.5664844 C10.0204868,16.6976325 10.1459219,16.77909 10.2818533,16.7442058 C10.4196754,16.708359 10.5161313,16.5723061 10.4995717,16.4402413 Z"/>
    </g>
</svg>