<?xml version="1.0" encoding="UTF-8"?>
<svg width="24px" height="24px" viewBox="0 0 24 24" version="1.1" xmlns="http://www.w3.org/2000/svg" xmlns:xlink="http://www.w3.org/1999/xlink">
    <!-- Generator: Sketch 50.2 (55047) - http://www.bohemiancoding.com/sketch -->
    <title>instagram</title>
    <desc>Created with Sketch.</desc>
    <defs></defs>
    <g id="instagram" stroke="none" stroke-width="1" fill="none" fill-rule="evenodd">
        <path d="M0,0 L24,0 L24,24 L0,24 L0,0 Z M17.1694312,10.9655437 L17.1694312,16.6521562 C17.1694312,16.93725 16.9379812,17.1687 16.6519687,17.1687 L7.3479375,17.1687 C7.06201875,17.1687 6.830475,16.93725 6.830475,16.6521562 L6.830475,10.9655437 L8.00060625,10.9655437 C7.91536875,11.2965 7.86474375,11.6422125 7.86474375,11.9997187 C7.86474375,14.28405 9.7162125,16.1352562 11.9999062,16.1352562 C14.2836937,16.1352562 16.1352562,14.28405 16.1352562,11.9997187 C16.1352562,11.6422125 16.084725,11.2965 15.9995812,10.9655437 L17.1694312,10.9655437 Z M17.1694312,7.347375 L17.1694312,8.898375 C17.1694312,9.18375 16.9379812,9.415275 16.6519687,9.415275 L15.101625,9.415275 C14.8161562,9.415275 14.584725,9.18375 14.584725,8.898375 L14.584725,7.347375 C14.584725,7.06201875 14.8161562,6.830475 15.101625,6.830475 L16.6519687,6.830475 C16.9379812,6.830475 17.1694312,7.06201875 17.1694312,7.347375 Z M11.9999063,9.415275 C13.4274938,9.415275 14.584725,10.5722438 14.584725,11.9997188 C14.584725,13.4271188 13.4274938,14.584725 11.9999063,14.584725 C10.5724125,14.584725 9.415275,13.4271188 9.415275,11.9997188 C9.415275,10.5722438 10.5724125,9.415275 11.9999063,9.415275 Z M17.1694312,18.7199625 C18.0260062,18.7199625 18.7199625,18.0254437 18.7199625,17.1687 L18.7199625,6.830475 C18.7199625,5.97418125 18.0260062,5.2800375 17.1694312,5.2800375 L6.830475,5.2800375 C5.974275,5.2800375 5.2800375,5.97418125 5.2800375,6.830475 L5.2800375,17.1687 C5.2800375,18.0254437 5.974275,18.7199625 6.830475,18.7199625 L17.1694312,18.7199625 Z"/>
    </g>
</svg>