<?xml version="1.0" encoding="UTF-8"?>
<svg width="60px" height="60px" viewBox="0 0 60 60" version="1.1" xmlns="http://www.w3.org/2000/svg" xmlns:xlink="http://www.w3.org/1999/xlink">
    <!-- Generator: Sketch 50.2 (55047) - http://www.bohemiancoding.com/sketch -->
    <title>instagram</title>
    <desc>Created with Sketch.</desc>
    <defs></defs>
    <g id="instagram" stroke="none" stroke-width="1" fill="none" fill-rule="evenodd">
        <path d="M45,10 L15,10 C12.17625,10 10,12.17625 10,15 L10,45 C10,47.8225 12.17625,50 15,50 L45,50 C47.8225,50 50,47.8225 50,45 L50,15 C50,12.17625 47.8225,10 45,10 Z M30.02875,22.1425 C34.465,22.1425 38.06,25.62625 38.06,29.925 C38.06,34.22125 34.465,37.7075 30.02875,37.7075 C25.59625,37.7075 22,34.22125 22,29.925 C22.00125,25.62625 25.5975,22.1425 30.02875,22.1425 Z M45,43.75 C45,44.62625 44.625,45 43.75,45 L16.25,45 C15.37625,45 15,44.62625 15,43.75 L15,26.25 L18.11625,26.9275 C17.7741045,28.0391252 17.6000974,29.1956618 17.6,30.35875 C17.6,37.00625 23.1675,42.40125 30.02875,42.40125 C36.89375,42.40125 42.45875,37.0075 42.45875,30.35875 C42.45875,29.165 42.2775,28.015 41.94375,26.9275 L45,26.25 L45,43.75 Z M45,21.25 C45,21.9403559 44.4403559,22.5 43.75,22.5 L38.75,22.5 C38.0596441,22.5 37.5,21.9403559 37.5,21.25 L37.5,16.25 C37.5,15.5596441 38.0596441,15 38.75,15 L43.75,15 C44.4403559,15 45,15.5596441 45,16.25 L45,21.25 Z" id="Flat_copy" fill="#F3F0EE" fill-rule="nonzero"></path>
    </g>
</svg>