<?xml version="1.0" encoding="UTF-8"?>
<svg width="24px" height="24px" viewBox="0 0 24 24" version="1.1" xmlns="http://www.w3.org/2000/svg" xmlns:xlink="http://www.w3.org/1999/xlink">
    <!-- Generator: Sketch 50.2 (55047) - http://www.bohemiancoding.com/sketch -->
    <title>linkedin</title>
    <desc>Created with Sketch.</desc>
    <defs></defs>
    <g id="linkedin" stroke="none" stroke-width="1" fill="none" fill-rule="evenodd">
        <path d="M0,0 L24,0 L24,24 L0,24 L0,0 Z M5.4516,9.70258125 L5.4516,18.6635813 L8.2394625,18.6635813 L8.2394625,9.70258125 L5.4516,9.70258125 Z M6.84631875,5.24806875 C5.95185,5.24806875 5.23059375,5.9716125 5.23059375,6.8630625 C5.23059375,7.7547 5.95185,8.47824375 6.84631875,8.47824375 C7.73720625,8.47824375 8.4604875,7.7547 8.4604875,6.8630625 C8.4604875,5.9716125 7.73720625,5.24806875 6.84631875,5.24806875 Z M9.9866625,9.70258125 L9.9866625,18.6635813 L12.7683188,18.6635812 L12.7683188,14.2315125 C12.7683188,13.062375 12.9894938,11.929875 14.4386063,11.929875 C15.8679188,11.929875 15.8858625,13.2667312 15.8858625,14.3058562 L15.8858625,18.6635813 L18.6705375,18.6635813 L18.6705375,13.7490188 C18.6705375,11.3356875 18.1494188,9.4801875 15.3295875,9.4801875 C13.9746188,9.4801875 13.0658625,10.2231375 12.6945188,10.92765 L12.65625,10.92765 L12.65625,9.70258125 L9.9866625,9.70258125 Z"/>
    </g>
</svg>