<?xml version="1.0" encoding="UTF-8"?>
<svg width="60px" height="60px" viewBox="0 0 60 60" version="1.1" xmlns="http://www.w3.org/2000/svg" xmlns:xlink="http://www.w3.org/1999/xlink">
    <!-- Generator: Sketch 50.2 (55047) - http://www.bohemiancoding.com/sketch -->
    <title>linkedin</title>
    <desc>Created with Sketch.</desc>
    <defs></defs>
    <g id="linkedin" stroke="none" stroke-width="1" fill="none" fill-rule="evenodd">
        <path d="M50,49.23125 L50,34.44125 C50,26.51625 45.77,22.82875 40.13,22.82875 C35.57875,22.82875 33.53875,25.3325 32.4025,27.09 L32.4025,23.435 L23.8275,23.435 C23.94125,25.85625 23.8275,49.23125 23.8275,49.23125 L32.4025,49.23125 L32.4025,34.825 C32.4025,34.05625 32.4575,33.285 32.685,32.735 C33.30375,31.19375 34.715,29.59875 37.0825,29.59875 C40.18625,29.59875 41.42625,31.96375 41.42625,35.43125 L41.42625,49.2325 L50,49.2325 L50,49.23125 Z M14.79375,19.91375 C17.7825,19.91375 19.64625,17.93125 19.64625,15.455 C19.59125,12.925 17.78375,11 14.85125,11 C11.91875,11 10,12.92375 10,15.455 C10,17.93125 11.86125,19.91375 14.74,19.91375 L14.79375,19.91375 Z M19.08125,49.23125 L19.08125,23.435 L10.5075,23.435 L10.5075,49.23125 L19.08125,49.23125 Z" id="Flat_copy" fill="#F3F0EE" fill-rule="nonzero"></path>
    </g>
</svg>