<?xml version="1.0" encoding="UTF-8"?>
<svg width="24px" height="24px" viewBox="0 0 24 24" version="1.1" xmlns="http://www.w3.org/2000/svg" xmlns:xlink="http://www.w3.org/1999/xlink">
    <!-- Generator: Sketch 50.2 (55047) - http://www.bohemiancoding.com/sketch -->
    <title>twitter</title>
    <desc>Created with Sketch.</desc>
    <defs></defs>
    <g id="twitter" stroke="none" stroke-width="1" fill="none" fill-rule="evenodd">
        <path d="M0,0 L24,0 L24,24 L0,24 L0,0 Z M18.7199625,7.83178125 C18.2255812,8.05115625 17.6942062,8.19928125 17.1363,8.2659375 C17.7055687,7.9246125 18.1428187,7.384275 18.3486375,6.740475 C17.8159875,7.0563375 17.2258312,7.28595 16.5977812,7.40955 C16.0947937,6.8736 15.3781125,6.538875 14.5850812,6.538875 C13.0621875,6.538875 11.8276125,7.773375 11.8276125,9.29608125 C11.8276125,9.512325 11.8520437,9.72271875 11.8990125,9.92450625 C9.60736875,9.8095125 7.57561875,8.71179375 6.2157,7.0435125 C5.97830625,7.45074375 5.84235,7.92444375 5.84235,8.4298125 C5.84235,9.38634375 6.3291375,10.2302813 7.068975,10.72485 C6.61696875,10.7105625 6.19179375,10.5864188 5.82009375,10.3798875 C5.81983125,10.3914188 5.81983125,10.40295 5.81983125,10.4146688 C5.81983125,11.7506063 6.770325,12.8649938 8.03173125,13.1184 C7.8003,13.1814 7.5566625,13.2150938 7.3052625,13.2150938 C7.12756875,13.2150938 6.95480625,13.1976938 6.78643125,13.16565 C7.13735625,14.2609875 8.15570625,15.0582188 9.36226875,15.0805688 C8.41854375,15.820125 7.22964375,16.2608625 5.93775,16.2608625 C5.7151875,16.2608625 5.49571875,16.2478688 5.2800375,16.2224063 C6.50034375,17.004825 7.94960625,17.461125 9.50683125,17.461125 C14.5786687,17.461125 17.3521687,13.2595875 17.3521687,9.6157875 C17.3521687,9.49621875 17.3494312,9.37738125 17.344125,9.2590875 C17.8828125,8.8703625 18.3504562,8.384775 18.7199625,7.83178125 Z"/>
    </g>
</svg>